<svg width="199" height="115" viewBox="0 0 199 115" fill="none" xmlns="http://www.w3.org/2000/svg">
<g clip-path="url(#clip0_8_11)">
<path d="M91.689 108.806C91.3956 108.806 91.1074 108.73 90.8523 108.585L42.4792 81.2364C42.086 81.0134 41.7973 80.6436 41.6764 80.2081C41.5554 79.7726 41.6122 79.3069 41.8342 78.9131L79.9342 11.5229C80.0443 11.328 80.1918 11.1567 80.3682 11.0187C80.5445 10.8808 80.7464 10.779 80.9621 10.7191C81.1778 10.6592 81.4032 10.6424 81.6255 10.6697C81.8477 10.6969 82.0624 10.7677 82.2573 10.8779L130.63 38.2263C131.023 38.4492 131.312 38.8189 131.433 39.2544C131.554 39.6899 131.497 40.1556 131.276 40.5494L93.1754 107.939C93.0657 108.135 92.9184 108.306 92.7419 108.444C92.5655 108.582 92.3634 108.684 92.1475 108.743C91.9982 108.785 91.8439 108.806 91.689 108.806Z" fill="#E6E6E6"/>
<path d="M78.585 14.1631L78.3906 14.5069L129.514 43.4104L129.709 43.0666L78.585 14.1631Z" fill="white"/>
<path d="M75.086 20.352L74.8917 20.6958L126.015 49.5993L126.21 49.2555L75.086 20.352Z" fill="white"/>
<path d="M71.5871 26.5409L71.3927 26.8847L122.516 55.7882L122.711 55.4443L71.5871 26.5409Z" fill="white"/>
<path d="M68.0881 32.7298L67.8937 33.0736L119.017 61.9771L119.212 61.6332L68.0881 32.7298Z" fill="white"/>
<path d="M64.5891 38.9187L64.3947 39.2625L115.518 68.166L115.713 67.8221L64.5891 38.9187Z" fill="white"/>
<path d="M61.0901 45.1076L60.8958 45.4514L112.019 74.3548L112.214 74.011L61.0901 45.1076Z" fill="white"/>
<path d="M57.5912 51.2965L57.3968 51.6403L108.52 80.5437L108.715 80.1999L57.5912 51.2965Z" fill="white"/>
<path d="M54.0922 57.4853L53.8978 57.8292L105.021 86.7326L105.216 86.3888L54.0922 57.4853Z" fill="white"/>
<path d="M50.5932 63.6742L50.3988 64.0181L101.522 92.9215L101.717 92.5777L50.5932 63.6742Z" fill="white"/>
<path d="M47.0943 69.8631L46.8999 70.2069L98.0235 99.1104L98.2179 98.7666L47.0943 69.8631Z" fill="white"/>
<path d="M43.5953 76.052L43.4009 76.3958L94.5246 105.299L94.719 104.955L43.5953 76.052Z" fill="white"/>
<path d="M87.1891 98.5563C86.8957 98.5561 86.6075 98.4798 86.3524 98.3349L37.9793 70.9865C37.5861 70.7636 37.2974 70.3938 37.1764 69.9583C37.0555 69.5228 37.1123 69.0571 37.3343 68.6633L75.4343 1.2731C75.5444 1.07817 75.6919 0.90685 75.8683 0.76893C76.0446 0.631009 76.2464 0.52919 76.4622 0.469291C76.6779 0.409392 76.9033 0.392586 77.1256 0.419834C77.3478 0.447081 77.5625 0.51785 77.7574 0.628093L126.13 27.9765C126.524 28.1994 126.812 28.5691 126.933 29.0046C127.054 29.4401 126.998 29.9058 126.776 30.2995L88.6755 97.6897C88.5658 97.885 88.4185 98.0566 88.242 98.1946C88.0656 98.3326 87.8635 98.4342 87.6475 98.4936C87.4983 98.5351 87.344 98.5562 87.1891 98.5563Z" fill="#F2F2F2"/>
<path d="M74.0851 3.91329L73.8907 4.25711L125.014 33.1606L125.209 32.8167L74.0851 3.91329Z" fill="white"/>
<path d="M70.5861 10.1022L70.3917 10.446L121.515 39.3495L121.71 39.0056L70.5861 10.1022Z" fill="white"/>
<path d="M67.0871 16.2911L66.8928 16.6349L118.016 45.5383L118.211 45.1945L67.0871 16.2911Z" fill="white"/>
<path d="M63.5882 22.48L63.3938 22.8238L114.517 51.7272L114.712 51.3834L63.5882 22.48Z" fill="white"/>
<path d="M60.0892 28.6689L59.8948 29.0127L111.018 57.9161L111.213 57.5723L60.0892 28.6689Z" fill="white"/>
<path d="M56.5902 34.8577L56.3958 35.2016L107.52 64.105L107.714 63.7612L56.5902 34.8577Z" fill="white"/>
<path d="M53.0913 41.0467L52.8969 41.3905L104.021 70.2939L104.215 69.9501L53.0913 41.0467Z" fill="white"/>
<path d="M49.5923 47.2355L49.3979 47.5794L100.522 76.4828L100.716 76.139L49.5923 47.2355Z" fill="white"/>
<path d="M46.0933 53.4244L45.8989 53.7682L97.0226 82.6717L97.217 82.3279L46.0933 53.4244Z" fill="white"/>
<path d="M42.5943 59.6133L42.4 59.9572L93.5236 88.8606L93.718 88.5168L42.5943 59.6133Z" fill="white"/>
<path d="M39.0954 65.8022L38.901 66.146L90.0246 95.0495L90.219 94.7056L39.0954 65.8022Z" fill="white"/>
<path d="M82.3686 0H5.06079V107.498H82.3686C82.6463 107.498 82.9126 107.388 83.109 107.191C83.3054 106.995 83.4157 106.729 83.4157 106.451V1.04706C83.4157 0.769362 83.3054 0.503045 83.109 0.306685C82.9126 0.110324 82.6463 5.967e-06 82.3686 0ZM9.42353 104.531C9.04387 104.531 8.67273 104.419 8.35705 104.208C8.04137 103.997 7.79533 103.697 7.65004 103.346C7.50475 102.996 7.46674 102.61 7.54081 102.237C7.61487 101.865 7.7977 101.523 8.06616 101.254C8.33462 100.986 8.67667 100.803 9.04903 100.729C9.4214 100.655 9.80737 100.693 10.1581 100.838C10.5089 100.984 10.8087 101.23 11.0196 101.545C11.2306 101.861 11.3431 102.232 11.3431 102.612C11.3431 102.864 11.2935 103.113 11.197 103.346C11.1006 103.579 10.9592 103.791 10.7809 103.969C10.6026 104.147 10.391 104.289 10.1581 104.385C9.92524 104.482 9.67562 104.531 9.42353 104.531ZM9.42353 94.7588C9.04387 94.7588 8.67273 94.6462 8.35706 94.4353C8.04138 94.2244 7.79534 93.9246 7.65005 93.5738C7.50475 93.223 7.46674 92.8371 7.54081 92.4647C7.61488 92.0923 7.7977 91.7503 8.06616 91.4818C8.33463 91.2134 8.67667 91.0305 9.04904 90.9565C9.4214 90.8824 9.80737 90.9204 10.1581 91.0657C10.5089 91.211 10.8087 91.457 11.0196 91.7727C11.2306 92.0884 11.3431 92.4595 11.3431 92.8392C11.3431 93.0913 11.2935 93.3409 11.197 93.5738C11.1006 93.8067 10.9592 94.0183 10.7809 94.1966C10.6027 94.3748 10.391 94.5162 10.1581 94.6127C9.92524 94.7092 9.67562 94.7588 9.42353 94.7588ZM9.42353 84.9863C9.04387 84.9863 8.67273 84.8737 8.35706 84.6627C8.04138 84.4518 7.79534 84.152 7.65005 83.8012C7.50475 83.4505 7.46674 83.0645 7.54081 82.6922C7.61488 82.3198 7.7977 81.9777 8.06616 81.7093C8.33463 81.4408 8.67667 81.258 9.04904 81.1839C9.4214 81.1099 9.80737 81.1479 10.1581 81.2932C10.5089 81.4385 10.8087 81.6845 11.0196 82.0002C11.2306 82.3159 11.3431 82.687 11.3431 83.0667C11.3431 83.3187 11.2935 83.5683 11.197 83.8012C11.1006 84.0341 10.9592 84.2458 10.7809 84.424C10.6026 84.6023 10.391 84.7437 10.1581 84.8401C9.92524 84.9366 9.67562 84.9863 9.42353 84.9863ZM9.42353 75.2137C9.04387 75.2137 8.67273 75.1011 8.35706 74.8902C8.04138 74.6793 7.79534 74.3795 7.65005 74.0287C7.50475 73.6779 7.46674 73.292 7.54081 72.9196C7.61488 72.5472 7.7977 72.2052 8.06616 71.9367C8.33463 71.6683 8.67667 71.4854 9.04904 71.4114C9.4214 71.3373 9.80737 71.3753 10.1581 71.5206C10.5089 71.6659 10.8087 71.9119 11.0196 72.2276C11.2306 72.5433 11.3431 72.9144 11.3431 73.2941C11.3431 73.5462 11.2935 73.7958 11.197 74.0287C11.1006 74.2616 10.9592 74.4732 10.7809 74.6515C10.6026 74.8297 10.391 74.9711 10.1581 75.0676C9.92524 75.1641 9.67562 75.2137 9.42353 75.2137ZM9.42353 65.4412C9.04387 65.4412 8.67273 65.3286 8.35706 65.1176C8.04138 64.9067 7.79534 64.6069 7.65005 64.2562C7.50475 63.9054 7.46674 63.5194 7.54081 63.1471C7.61488 62.7747 7.7977 62.4326 8.06616 62.1642C8.33463 61.8957 8.67667 61.7129 9.04904 61.6388C9.4214 61.5648 9.80737 61.6028 10.1581 61.7481C10.5089 61.8934 10.8087 62.1394 11.0196 62.4551C11.2306 62.7708 11.3431 63.1419 11.3431 63.5216C11.3431 63.7736 11.2935 64.0233 11.197 64.2562C11.1006 64.4891 10.9592 64.7007 10.7809 64.8789C10.6026 65.0572 10.391 65.1986 10.1581 65.295C9.92524 65.3915 9.67562 65.4412 9.42353 65.4412ZM9.42353 55.6686C9.04387 55.6686 8.67273 55.556 8.35706 55.3451C8.04138 55.1342 7.79534 54.8344 7.65005 54.4836C7.50475 54.1329 7.46674 53.7469 7.54081 53.3745C7.61488 53.0021 7.7977 52.6601 8.06616 52.3916C8.33463 52.1232 8.67667 51.9404 9.04904 51.8663C9.4214 51.7922 9.80737 51.8302 10.1581 51.9755C10.5089 52.1208 10.8087 52.3669 11.0196 52.6825C11.2306 52.9982 11.3431 53.3693 11.3431 53.749C11.3431 54.0011 11.2935 54.2507 11.197 54.4836C11.1006 54.7165 10.9592 54.9281 10.7809 55.1064C10.6026 55.2846 10.391 55.426 10.1581 55.5225C9.92524 55.619 9.67562 55.6686 9.42353 55.6686ZM9.42353 45.8961C9.04387 45.8961 8.67273 45.7835 8.35706 45.5726C8.04138 45.3616 7.79534 45.0618 7.65005 44.7111C7.50475 44.3603 7.46674 43.9743 7.54081 43.602C7.61488 43.2296 7.7977 42.8876 8.06616 42.6191C8.33463 42.3506 8.67667 42.1678 9.04904 42.0937C9.4214 42.0197 9.80737 42.0577 10.1581 42.203C10.5089 42.3483 10.8087 42.5943 11.0196 42.91C11.2306 43.2257 11.3431 43.5968 11.3431 43.9765C11.3431 44.2285 11.2935 44.4782 11.197 44.7111C11.1006 44.944 10.9592 45.1556 10.7809 45.3338C10.6026 45.5121 10.391 45.6535 10.1581 45.7499C9.92524 45.8464 9.67562 45.8961 9.42353 45.8961ZM9.42353 36.1235C9.04387 36.1235 8.67273 36.0109 8.35706 35.8C8.04138 35.5891 7.79534 35.2893 7.65005 34.9385C7.50475 34.5878 7.46674 34.2018 7.54081 33.8294C7.61488 33.457 7.7977 33.115 8.06616 32.8465C8.33463 32.5781 8.67667 32.3953 9.04904 32.3212C9.4214 32.2471 9.80737 32.2851 10.1581 32.4304C10.5089 32.5757 10.8087 32.8218 11.0196 33.1374C11.2306 33.4531 11.3431 33.8242 11.3431 34.2039C11.3431 34.456 11.2935 34.7056 11.197 34.9385C11.1006 35.1714 10.9592 35.383 10.7809 35.5613C10.6026 35.7395 10.391 35.8809 10.1581 35.9774C9.92524 36.0739 9.67562 36.1235 9.42353 36.1235ZM9.42353 26.351C9.04387 26.351 8.67273 26.2384 8.35706 26.0275C8.04138 25.8165 7.79534 25.5167 7.65005 25.166C7.50475 24.8152 7.46674 24.4292 7.54081 24.0569C7.61488 23.6845 7.7977 23.3425 8.06616 23.074C8.33463 22.8055 8.67667 22.6227 9.04904 22.5486C9.4214 22.4746 9.80737 22.5126 10.1581 22.6579C10.5089 22.8032 10.8087 23.0492 11.0196 23.3649C11.2306 23.6806 11.3431 24.0517 11.3431 24.4314C11.3431 24.6835 11.2935 24.9331 11.197 25.166C11.1006 25.3989 10.9592 25.6105 10.7809 25.7887C10.6026 25.967 10.391 26.1084 10.1581 26.2049C9.92524 26.3013 9.67562 26.351 9.42353 26.351ZM9.42353 16.5784C9.04387 16.5784 8.67273 16.4658 8.35705 16.2549C8.04137 16.044 7.79533 15.7442 7.65004 15.3934C7.50475 15.0427 7.46674 14.6567 7.54081 14.2843C7.61487 13.912 7.7977 13.5699 8.06616 13.3015C8.33462 13.033 8.67667 12.8502 9.04903 12.7761C9.4214 12.702 9.80737 12.74 10.1581 12.8853C10.5089 13.0306 10.8087 13.2767 11.0196 13.5923C11.2306 13.908 11.3431 14.2792 11.3431 14.6588C11.3431 14.9109 11.2935 15.1605 11.197 15.3934C11.1006 15.6263 10.9592 15.8379 10.7809 16.0162C10.6026 16.1944 10.391 16.3358 10.1581 16.4323C9.92524 16.5288 9.67562 16.5784 9.42353 16.5784ZM9.42353 6.80588C9.04387 6.80588 8.67273 6.6933 8.35705 6.48237C8.04137 6.27144 7.79533 5.97164 7.65004 5.62088C7.50475 5.27012 7.46674 4.88414 7.54081 4.51178C7.61487 4.13941 7.7977 3.79737 8.06616 3.52891C8.33462 3.26044 8.67667 3.07762 9.04903 3.00355C9.4214 2.92948 9.80737 2.96749 10.1581 3.11279C10.5089 3.25808 10.8087 3.50412 11.0196 3.8198C11.2306 4.13547 11.3431 4.50661 11.3431 4.88627C11.3431 5.13836 11.2935 5.38798 11.197 5.62088C11.1006 5.85377 10.9592 6.06539 10.7809 6.24364C10.6026 6.4219 10.391 6.56329 10.1581 6.65976C9.92524 6.75623 9.67562 6.80588 9.42353 6.80588Z" fill="#003049"/>
<path d="M5.06078 5.93333C4.54279 5.93333 0 5.90887 0 5.06078C0 4.21269 4.54279 4.18823 5.06078 4.18823V4.53725C2.38513 4.53725 0.650192 4.83676 0.370789 5.06078C0.650192 5.2848 2.38513 5.58431 5.06078 5.58431C7.73047 5.58431 9.46362 5.28607 9.74886 5.06232C9.61311 4.96646 9.05859 4.76554 7.57124 4.63695L7.60127 4.2893C10.1216 4.50709 10.1216 4.90937 10.1216 5.06078C10.1216 5.90887 5.57877 5.93333 5.06078 5.93333Z" fill="#2F2E41"/>
<path d="M5.06078 15.5314C4.54279 15.5314 0 15.5069 0 14.6588C0 13.8107 4.54279 13.7863 5.06078 13.7863V14.1353C2.38513 14.1353 0.650192 14.4348 0.370789 14.6588C0.650192 14.8829 2.38513 15.1824 5.06078 15.1824C7.73047 15.1824 9.46362 14.8841 9.74886 14.6604C9.61311 14.5645 9.05859 14.3636 7.57124 14.235L7.60127 13.8874C10.1216 14.1052 10.1216 14.5074 10.1216 14.6588C10.1216 15.5069 5.57877 15.5314 5.06078 15.5314Z" fill="#2F2E41"/>
<path d="M5.06078 25.3039C4.54279 25.3039 0 25.2794 0 24.4313C0 23.5833 4.54279 23.5588 5.06078 23.5588V23.9078C2.38513 23.9078 0.650192 24.2073 0.370789 24.4313C0.650192 24.6554 2.38513 24.9549 5.06078 24.9549C7.73047 24.9549 9.46362 24.6566 9.74886 24.4329C9.61311 24.337 9.05859 24.1361 7.57124 24.0075L7.60127 23.6599C10.1216 23.8777 10.1216 24.2799 10.1216 24.4314C10.1216 25.2794 5.57877 25.3039 5.06078 25.3039Z" fill="#2F2E41"/>
<path d="M5.06078 35.0765C4.54279 35.0765 0 35.052 0 34.2039C0 33.3558 4.54279 33.3314 5.06078 33.3314V33.6804C2.38513 33.6804 0.650192 33.9799 0.370789 34.2039C0.650192 34.4279 2.38513 34.7274 5.06078 34.7274C7.73047 34.7274 9.46362 34.4292 9.74886 34.2055C9.61311 34.1096 9.05859 33.9087 7.57124 33.7801L7.60127 33.4324C10.1216 33.6502 10.1216 34.0525 10.1216 34.2039C10.1216 35.052 5.57877 35.0765 5.06078 35.0765Z" fill="#2F2E41"/>
<path d="M5.06078 44.849C4.54279 44.849 0 44.8246 0 43.9765C0 43.1284 4.54279 43.1039 5.06078 43.1039V43.4529C2.38513 43.4529 0.650192 43.7524 0.370789 43.9765C0.650192 44.2005 2.38513 44.5 5.06078 44.5C7.73047 44.5 9.46362 44.2017 9.74886 43.978C9.61311 43.8821 9.05859 43.6812 7.57124 43.5526L7.60127 43.205C10.1216 43.4228 10.1216 43.8251 10.1216 43.9765C10.1216 44.8246 5.57877 44.849 5.06078 44.849Z" fill="#2F2E41"/>
<path d="M5.06078 54.6216C4.54279 54.6216 0 54.5971 0 53.749C0 52.9009 4.54279 52.8765 5.06078 52.8765V53.2255C2.38513 53.2255 0.650192 53.525 0.370789 53.749C0.650192 53.973 2.38513 54.2725 5.06078 54.2725C7.73047 54.2725 9.46362 53.9743 9.74886 53.7505C9.61311 53.6547 9.05859 53.4538 7.57124 53.3252L7.60127 52.9775C10.1216 53.1953 10.1216 53.5976 10.1216 53.749C10.1216 54.5971 5.57877 54.6216 5.06078 54.6216Z" fill="#2F2E41"/>
<path d="M5.06078 64.3941C4.54279 64.3941 0 64.3697 0 63.5216C0 62.6735 4.54279 62.649 5.06078 62.649V62.998C2.38513 62.998 0.650192 63.2976 0.370789 63.5216C0.650192 63.7456 2.38513 64.0451 5.06078 64.0451C7.73047 64.0451 9.46362 63.7469 9.74886 63.5231C9.61311 63.4272 9.05859 63.2263 7.57124 63.0977L7.60127 62.7501C10.1216 62.9679 10.1216 63.3702 10.1216 63.5216C10.1216 64.3697 5.57877 64.3941 5.06078 64.3941Z" fill="#2F2E41"/>
<path d="M5.06078 74.1667C4.54279 74.1667 0 74.1422 0 73.2941C0 72.446 4.54279 72.4216 5.06078 72.4216V72.7706C2.38513 72.7706 0.650192 73.0701 0.370789 73.2941C0.650192 73.5181 2.38513 73.8177 5.06078 73.8177C7.73047 73.8177 9.46362 73.5194 9.74886 73.2957C9.61311 73.1998 9.05859 72.9989 7.57124 72.8703L7.60127 72.5226C10.1216 72.7404 10.1216 73.1427 10.1216 73.2941C10.1216 74.1422 5.57877 74.1667 5.06078 74.1667Z" fill="#2F2E41"/>
<path d="M5.06078 83.9392C4.54279 83.9392 0 83.9147 0 83.0666C0 82.2186 4.54279 82.1941 5.06078 82.1941V82.5431C2.38513 82.5431 0.650192 82.8426 0.370789 83.0666C0.650192 83.2907 2.38513 83.5902 5.06078 83.5902C7.73047 83.5902 9.46362 83.2919 9.74886 83.0682C9.61311 82.9723 9.05859 82.7714 7.57124 82.6428L7.60127 82.2951C10.1216 82.5129 10.1216 82.9152 10.1216 83.0666C10.1216 83.9147 5.57877 83.9392 5.06078 83.9392Z" fill="#2F2E41"/>
<path d="M5.06078 93.7117C4.54279 93.7117 0 93.6873 0 92.8392C0 91.9911 4.54279 91.9666 5.06078 91.9666V92.3157C2.38513 92.3157 0.650192 92.6152 0.370789 92.8392C0.650192 93.0632 2.38513 93.3627 5.06078 93.3627C7.73047 93.3627 9.46362 93.0645 9.74886 92.8407C9.61311 92.7449 9.05859 92.5439 7.57124 92.4154L7.60127 92.0677C10.1216 92.2855 10.1216 92.6878 10.1216 92.8392C10.1216 93.6873 5.57877 93.7117 5.06078 93.7117Z" fill="#2F2E41"/>
<path d="M5.06078 103.484C4.54279 103.484 0 103.46 0 102.612C0 101.764 4.54279 101.739 5.06078 101.739V102.088C2.38513 102.088 0.650192 102.388 0.370789 102.612C0.650192 102.836 2.38513 103.135 5.06078 103.135C7.73047 103.135 9.46362 102.837 9.74886 102.613C9.61311 102.517 9.05859 102.317 7.57124 102.188L7.60127 101.84C10.1216 102.058 10.1216 102.46 10.1216 102.612C10.1216 103.46 5.57877 103.484 5.06078 103.484Z" fill="#2F2E41"/>
<path d="M66.5755 41.0971H28.1833C27.8826 41.0967 27.5943 40.9771 27.3816 40.7644C27.169 40.5518 27.0494 40.2635 27.049 39.9627V24.9549C27.0494 24.6542 27.169 24.3659 27.3816 24.1532C27.5943 23.9405 27.8826 23.8209 28.1833 23.8206H66.5755C66.8762 23.8209 67.1645 23.9405 67.3772 24.1532C67.5898 24.3659 67.7094 24.6542 67.7098 24.9549V39.9627C67.7094 40.2635 67.5898 40.5518 67.3772 40.7645C67.1645 40.9771 66.8762 41.0967 66.5755 41.0971Z" fill="white"/>
<path d="M52.2657 28.9686H42.4931C42.2617 28.9686 42.0398 28.8767 41.8761 28.713C41.7125 28.5494 41.6206 28.3275 41.6206 28.0961C41.6206 27.8646 41.7125 27.6427 41.8761 27.4791C42.0398 27.3154 42.2617 27.2235 42.4931 27.2235H52.2657C52.4971 27.2235 52.719 27.3154 52.8827 27.4791C53.0463 27.6427 53.1382 27.8646 53.1382 28.0961C53.1382 28.3275 53.0463 28.5494 52.8827 28.713C52.719 28.8767 52.4971 28.9686 52.2657 28.9686Z" fill="#D62828"/>
<path d="M57.6755 33.3314H37.0833C36.8519 33.3314 36.63 33.2394 36.4663 33.0758C36.3027 32.9122 36.2108 32.6902 36.2108 32.4588C36.2108 32.2274 36.3027 32.0055 36.4663 31.8418C36.63 31.6782 36.8519 31.5863 37.0833 31.5863H57.6755C57.9069 31.5863 58.1288 31.6782 58.2925 31.8418C58.4561 32.0055 58.548 32.2274 58.548 32.4588C58.548 32.6902 58.4561 32.9122 58.2925 33.0758C58.1288 33.2394 57.9069 33.3314 57.6755 33.3314Z" fill="#D62828"/>
<path d="M57.6755 37.6941H37.0833C36.8519 37.6941 36.63 37.6022 36.4663 37.4386C36.3027 37.2749 36.2108 37.053 36.2108 36.8216C36.2108 36.5902 36.3027 36.3682 36.4663 36.2046C36.63 36.041 36.8519 35.949 37.0833 35.949H57.6755C57.9069 35.949 58.1288 36.041 58.2925 36.2046C58.4561 36.3682 58.548 36.5902 58.548 36.8216C58.548 37.053 58.4561 37.2749 58.2925 37.4386C58.1288 37.6022 57.9069 37.6941 57.6755 37.6941Z" fill="#D62828"/>
<path d="M157.404 36.2318C157.95 36.2319 158.484 36.078 158.945 35.7878C159.407 35.4975 159.777 35.0828 160.013 34.5914C160.25 34.1 160.342 33.5518 160.28 33.0101C160.219 32.4684 160.005 31.9551 159.665 31.5294C158.239 29.7478 155.118 30.0207 153.87 28.1109C152.812 26.4925 153.789 24.27 155.198 22.946C157.956 20.3539 162.372 19.717 165.751 21.4238C169.129 23.1306 171.237 27.0631 170.787 30.8215C170.616 32.2531 170.219 33.9905 171.33 34.9094C172.316 35.7249 173.773 35.262 175.012 34.9408C176.848 34.4778 178.764 34.4176 180.626 34.7643C182.488 35.111 184.254 35.8565 185.801 36.9495C188.432 38.8351 190.349 41.8805 190.351 45.1173C190.352 48.3542 188.147 51.6161 184.993 52.3408C181.9 53.0512 178.713 51.324 176.525 49.0257C174.338 46.7274 172.836 43.8688 170.842 41.4004C168.849 38.9321 166.09 36.7579 162.918 36.7008C161.08 36.6676 159.067 37.3145 157.507 36.3419" fill="#2F2E41"/>
<path d="M158.768 37.5207C162.159 37.5207 164.908 34.7716 164.908 31.3805C164.908 27.9894 162.159 25.2404 158.768 25.2404C155.377 25.2404 152.628 27.9894 152.628 31.3805C152.628 34.7716 155.377 37.5207 158.768 37.5207Z" fill="#FFB8B8"/>
<path d="M145.707 72.1132C145.598 71.762 145.569 71.3913 145.619 71.0273C145.669 70.6632 145.799 70.3147 145.999 70.0062C146.199 69.6977 146.464 69.4368 146.775 69.2418C147.087 69.0468 147.437 68.9224 147.802 68.8775L149.677 60.1431L152.93 63.4554L150.65 71.242C150.685 71.8598 150.492 72.4689 150.108 72.9538C149.724 73.4388 149.175 73.766 148.565 73.8734C147.956 73.9808 147.329 73.8609 146.802 73.5365C146.275 73.2121 145.885 72.7056 145.707 72.1132Z" fill="#FFB8B8"/>
<path d="M177.245 110.05L174.233 110.615L165.152 80.7885L171.598 79.9543L177.245 110.05Z" fill="#FFB8B8"/>
<path d="M171.919 110.159L177.729 109.069L178.415 112.727L168.948 114.503C168.858 114.023 168.863 113.529 168.963 113.051C169.064 112.573 169.258 112.119 169.534 111.715C169.81 111.312 170.162 110.967 170.572 110.7C170.981 110.433 171.439 110.249 171.919 110.159Z" fill="#2F2E41"/>
<path d="M157.505 111.656L154.441 111.656L153.982 84.0349L160.506 84.0352L157.505 111.656Z" fill="#FFB8B8"/>
<path d="M152.251 110.781H158.162V114.502H148.53C148.53 114.013 148.626 113.53 148.813 113.078C149 112.626 149.274 112.216 149.62 111.871C149.965 111.525 150.376 111.251 150.827 111.064C151.279 110.877 151.763 110.781 152.251 110.781Z" fill="#2F2E41"/>
<path d="M152.572 87.7941L152.854 74.295C152.832 74.1051 150.618 53.6537 149.793 48.428C148.954 43.1178 153.287 40.3949 153.331 40.3681C153.525 40.2886 153.7 40.2213 153.875 40.1568C155.924 39.3813 158.151 39.2014 160.298 39.6378C162.445 40.0741 164.425 41.1089 166.01 42.6227C167.65 44.1361 168.835 46.0769 169.434 48.227C170.032 50.3771 170.018 52.6514 169.395 54.7944L167.867 60.0853C175.697 74.2401 177.303 80.3313 177.319 80.3911L177.323 80.4094L177.322 80.4285C177.042 86.0421 153.702 87.7162 152.708 87.7848L152.572 87.7941Z" fill="#D62828"/>
<path d="M150.751 45.9031L145.462 66.7815L154.927 67.895L150.751 45.9031Z" fill="#D62828"/>
<path d="M163.538 63.1606C163.602 62.7989 163.746 62.4557 163.957 62.1553C164.169 61.8548 164.444 61.6045 164.763 61.4219C165.082 61.2392 165.437 61.1287 165.803 61.0982C166.169 61.0676 166.538 61.1177 166.883 61.245L172.552 54.3412L173.925 58.7759L168.331 64.6519C168.079 65.2169 167.628 65.6698 167.064 65.9248C166.5 66.1797 165.863 66.219 165.272 66.0352C164.681 65.8513 164.178 65.4572 163.859 64.9274C163.539 64.3976 163.425 63.769 163.538 63.1606Z" fill="#FFB8B8"/>
<path d="M170.943 63.1776L166.007 59.9848L170.704 55.0112L157.968 51.135L161.245 41.5891L165.276 42.1649L175.523 49.755C176.826 50.7274 177.695 52.1721 177.944 53.7786C178.193 55.3851 177.802 57.0253 176.855 58.3466L176.833 58.3703L170.943 63.1776Z" fill="#D62828"/>
<path d="M153.239 27.8906C155.881 29.5035 158.86 30.4849 161.943 30.7586L161.026 29.6593C161.694 29.9063 162.397 30.0459 163.109 30.0729C163.82 30.0618 164.564 29.7881 164.968 29.2026C165.148 28.9116 165.255 28.5814 165.28 28.2401C165.304 27.8988 165.246 27.5567 165.11 27.2427C164.83 26.6166 164.395 26.0724 163.846 25.662C162.872 24.8917 161.723 24.3743 160.501 24.1558C159.278 23.9374 158.021 24.0247 156.841 24.4101C156.031 24.652 155.306 25.1172 154.748 25.7522C154.22 26.4045 153.066 26.9912 153.337 27.7861L153.239 27.8906Z" fill="#2F2E41"/>
<path d="M198.258 114.705H122.185C122.106 114.705 122.031 114.674 121.975 114.618C121.919 114.562 121.888 114.486 121.888 114.407C121.888 114.328 121.919 114.253 121.975 114.197C122.031 114.141 122.106 114.11 122.185 114.11H198.258C198.336 114.11 198.412 114.141 198.467 114.197C198.523 114.253 198.554 114.329 198.554 114.407C198.554 114.486 198.523 114.562 198.467 114.618C198.412 114.673 198.336 114.705 198.258 114.705Z" fill="#003049"/>
</g>
<defs>
<clipPath id="clip0_8_11">
<rect width="198.555" height="114.705" fill="white"/>
</clipPath>
</defs>
</svg>
